<svg width="48" height="48" viewBox="0 0 48 48" fill="none" xmlns="http://www.w3.org/2000/svg">
<path d="M11 4H34C35.3261 4 36.5979 4.52678 37.5355 5.46447C38.4732 6.40215 39 7.67392 39 9V22.626C36.721 21.8876 34.2823 21.7933 31.953 22.3535C29.6238 22.9138 27.4947 24.1067 25.8007 25.8007C24.1067 27.4947 22.9138 29.6238 22.3535 31.953C21.7933 34.2823 21.8876 36.721 22.626 39H9C9 39.5304 9.21071 40.0391 9.58579 40.4142C9.96086 40.7893 10.4696 41 11 41H23.464C24.0366 42.0973 24.7626 43.1074 25.62 44H11C9.67392 44 8.40215 43.4732 7.46447 42.5355C6.52678 41.5979 6 40.3261 6 39V9C6 7.67392 6.52678 6.40215 7.46447 5.46447C8.40215 4.52678 9.67392 4 11 4ZM14 10C13.4696 10 12.9609 10.2107 12.5858 10.5858C12.2107 10.9609 12 11.4696 12 12V14C12 14.5304 12.2107 15.0391 12.5858 15.4142C12.9609 15.7893 13.4696 16 14 16H30C30.5304 16 31.0391 15.7893 31.4142 15.4142C31.7893 15.0391 32 14.5304 32 14V12C32 11.4696 31.7893 10.9609 31.4142 10.5858C31.0391 10.2107 30.5304 10 30 10H14ZM46 35C46 32.0826 44.8411 29.2847 42.7782 27.2218C40.7153 25.1589 37.9174 24 35 24C32.0826 24 29.2847 25.1589 27.2218 27.2218C25.1589 29.2847 24 32.0826 24 35C24 37.9174 25.1589 40.7153 27.2218 42.7782C29.2847 44.8411 32.0826 46 35 46C37.9174 46 40.7153 44.8411 42.7782 42.7782C44.8411 40.7153 46 37.9174 46 35ZM33.828 30.194L39.44 33.874C39.6139 33.9856 39.7565 34.1396 39.8545 34.3216C39.9525 34.5035 40.0025 34.7074 40 34.914C40.0002 35.1219 39.9509 35.3269 39.856 35.512C39.7665 35.6952 39.6298 35.8512 39.46 35.964L33.846 39.794C33.7483 39.8597 33.642 39.9116 33.53 39.948C33.2701 40.031 32.9886 40.0146 32.74 39.902C32.5967 39.8349 32.4661 39.7436 32.354 39.632C32.2457 39.514 32.1578 39.3789 32.094 39.232C32.0315 39.0818 31.9996 38.9207 32 38.758V31.242C31.999 31.0013 32.0678 30.7656 32.198 30.5632C32.3283 30.3609 32.5145 30.2007 32.734 30.102C32.9084 30.0203 33.1011 29.9856 33.293 30.0014C33.4849 30.0172 33.6693 30.0829 33.828 30.192V30.194Z" fill="#9B5DE5"/>
</svg>
