<svg width="40" height="38" viewBox="0 0 40 38" fill="none" xmlns="http://www.w3.org/2000/svg">
<g clip-path="url(#clip0_1630_276)">
<path d="M34 38C32.7 38 31.5333 37.6038 30.5 36.8114C29.4667 36.0191 28.75 35.0079 28.35 33.7778H18C15.8 33.7778 13.9167 32.9509 12.35 31.2972C10.7833 29.6435 10 27.6556 10 25.3333C10 23.0111 10.7833 21.0231 12.35 19.3694C13.9167 17.7157 15.8 16.8889 18 16.8889H22C23.1 16.8889 24.042 16.4751 24.826 15.6476C25.61 14.82 26.0013 13.8264 26 12.6667C26 11.5056 25.608 10.5112 24.824 9.68367C24.04 8.85611 23.0987 8.44304 22 8.44444H11.65C11.2167 9.67593 10.4913 10.6879 9.474 11.4802C8.45667 12.2726 7.29867 12.6681 6 12.6667C4.33333 12.6667 2.91667 12.0509 1.75 10.8194C0.583333 9.58796 0 8.09259 0 6.33333C0 4.57407 0.583333 3.0787 1.75 1.84722C2.91667 0.615741 4.33333 0 6 0C7.3 0 8.45867 0.396185 9.476 1.18856C10.4933 1.98093 11.2173 2.99215 11.648 4.22222H22C24.2 4.22222 26.0833 5.04907 27.65 6.70278C29.2167 8.35648 30 10.3444 30 12.6667C30 14.9889 29.2167 16.9769 27.65 18.6306C26.0833 20.2843 24.2 21.1111 22 21.1111H18C16.9 21.1111 15.958 21.5249 15.174 22.3524C14.39 23.18 13.9987 24.1736 14 25.3333C14 26.4944 14.392 27.4888 15.176 28.3163C15.96 29.1439 16.9013 29.557 18 29.5556H28.35C28.7833 28.3241 29.5087 27.3121 30.526 26.5198C31.5433 25.7274 32.7013 25.3319 34 25.3333C35.6667 25.3333 37.0833 25.9491 38.25 27.1806C39.4167 28.412 40 29.9074 40 31.6667C40 33.4259 39.4167 34.9213 38.25 36.1528C37.0833 37.3843 35.6667 38 34 38ZM6 8.44444C6.56667 8.44444 7.042 8.24178 7.426 7.83644C7.81 7.43111 8.00133 6.93007 8 6.33333C8 5.73519 7.808 5.23345 7.424 4.82811C7.04 4.42278 6.56533 4.22081 6 4.22222C5.43333 4.22222 4.958 4.42489 4.574 4.83022C4.19 5.23556 3.99867 5.73659 4 6.33333C4 6.93148 4.192 7.43322 4.576 7.83856C4.96 8.24389 5.43467 8.44585 6 8.44444Z" fill="#9B5DE5"/>
</g>
<defs>
<clipPath id="clip0_1630_276">
<rect width="40" height="38" fill="white"/>
</clipPath>
</defs>
</svg>
