<svg width="48" height="48" viewBox="0 0 48 48" fill="none" xmlns="http://www.w3.org/2000/svg">
<path opacity="0.3" d="M17.3198 29.2804L8.81982 37.7604L10.2398 39.1804L18.7198 30.6804L17.3198 29.2804ZM29.1918 30.6904L30.6058 29.2764L39.0898 37.7624L37.6758 39.1764L29.1918 30.6904Z" fill="#9B5DE5"/>
<path d="M43.3402 36.3402L32.7402 25.7402H30.7602L25.6802 30.8202V32.8002L36.2802 43.4002C37.0602 44.1802 38.3202 44.1802 39.1002 43.4002L43.3402 39.1602C43.5256 38.9752 43.6727 38.7554 43.773 38.5135C43.8734 38.2715 43.9251 38.0122 43.9251 37.7502C43.9251 37.4883 43.8734 37.2289 43.773 36.987C43.6727 36.745 43.5256 36.5253 43.3402 36.3402ZM37.6802 39.1802L29.2002 30.7002L30.6202 29.2802L39.1002 37.7602L37.6802 39.1802Z" fill="#9B5DE5"/>
<path d="M34.68 20.38L37.5 17.56L41.74 21.8C42.8636 20.675 43.4947 19.15 43.4947 17.56C43.4947 15.97 42.8636 14.445 41.74 13.32L34.66 6.24L31.84 9.06V3.42L30.44 2L23.36 9.08L24.78 10.5H30.44L27.62 13.32L29.74 15.44L23.96 21.22L15.7 12.96V10.12L9.66 4.08L4 9.74L10.06 15.8H12.88L21.14 24.06L19.44 25.76H15.2L4.6 36.36C4.41459 36.545 4.2675 36.7648 4.16713 37.0068C4.06677 37.2487 4.01511 37.5081 4.01511 37.77C4.01511 38.0319 4.06677 38.2913 4.16713 38.5332C4.2675 38.7752 4.41459 38.995 4.6 39.18L8.84 43.42C9.62 44.2 10.88 44.2 11.66 43.42L22.26 32.82V28.58L32.56 18.28L34.68 20.38ZM18.72 30.68L10.24 39.16L8.82 37.74L17.3 29.26L18.72 30.68Z" fill="#9B5DE5"/>
</svg>
