<svg width="40" height="40" viewBox="0 0 40 40" fill="none" xmlns="http://www.w3.org/2000/svg">
<g clip-path="url(#clip0_1630_191)">
<path d="M11 3C10.2044 3 9.44129 3.31607 8.87868 3.87868C8.31607 4.44129 8 5.20435 8 6C8 6.79565 8.31607 7.55871 8.87868 8.12132C9.44129 8.68393 10.2044 9 11 9C11.7956 9 12.5587 8.68393 13.1213 8.12132C13.6839 7.55871 14 6.79565 14 6C14 5.20435 13.6839 4.44129 13.1213 3.87868C12.5587 3.31607 11.7956 3 11 3ZM5 6C5 4.4087 5.63214 2.88258 6.75736 1.75736C7.88258 0.632141 9.4087 0 11 0C12.5913 0 14.1174 0.632141 15.2426 1.75736C16.3679 2.88258 17 4.4087 17 6C17 7.5913 16.3679 9.11742 15.2426 10.2426C14.1174 11.3679 12.5913 12 11 12C9.4087 12 7.88258 11.3679 6.75736 10.2426C5.63214 9.11742 5 7.5913 5 6ZM3.536 14C1.58 14 0 15.582 0 17.536V18.256C0 18.67 1.19209e-07 21.072 1.4 23.406C2.496 25.226 4.354 26.86 7.35 27.592C7.76033 26.5012 8.5034 25.5671 9.474 24.922C6.268 24.58 4.752 23.156 3.974 21.862C3.006 20.25 3 18.534 3 18.25V17.536C3 17.24 3.24 17 3.536 17H12.06C12.1921 15.9424 12.5356 14.9222 13.07 14H3.536ZM26.93 14C27.452 14.904 27.804 15.918 27.938 17H36.464C36.76 17 37 17.24 37 17.536V18.25C37 18.534 36.994 20.25 36.026 21.86C35.248 23.156 33.732 24.58 30.526 24.922C31.486 25.562 32.238 26.494 32.65 27.592C35.646 26.86 37.504 25.226 38.598 23.406C40 21.072 40 18.672 40 18.254V17.534C40 15.584 38.418 14 36.464 14H26.93ZM26 6C26 5.20435 26.3161 4.44129 26.8787 3.87868C27.4413 3.31607 28.2044 3 29 3C29.7956 3 30.5587 3.31607 31.1213 3.87868C31.6839 4.44129 32 5.20435 32 6C32 6.79565 31.6839 7.55871 31.1213 8.12132C30.5587 8.68393 29.7956 9 29 9C28.2044 9 27.4413 8.68393 26.8787 8.12132C26.3161 7.55871 26 6.79565 26 6ZM29 0C27.4087 0 25.8826 0.632141 24.7574 1.75736C23.6321 2.88258 23 4.4087 23 6C23 7.5913 23.6321 9.11742 24.7574 10.2426C25.8826 11.3679 27.4087 12 29 12C30.5913 12 32.1174 11.3679 33.2426 10.2426C34.3679 9.11742 35 7.5913 35 6C35 4.4087 34.3679 2.88258 33.2426 1.75736C32.1174 0.632141 30.5913 0 29 0ZM20 15C19.606 15 19.2159 15.0776 18.8519 15.2284C18.488 15.3791 18.1573 15.6001 17.8787 15.8787C17.6001 16.1573 17.3791 16.488 17.2284 16.8519C17.0776 17.2159 17 17.606 17 18C17 18.394 17.0776 18.7841 17.2284 19.1481C17.3791 19.512 17.6001 19.8427 17.8787 20.1213C18.1573 20.3999 18.488 20.6209 18.8519 20.7716C19.2159 20.9224 19.606 21 20 21C20.7956 21 21.5587 20.6839 22.1213 20.1213C22.6839 19.5587 23 18.7956 23 18C23 17.2044 22.6839 16.4413 22.1213 15.8787C21.5587 15.3161 20.7956 15 20 15ZM14 18C14 16.4087 14.6321 14.8826 15.7574 13.7574C16.8826 12.6321 18.4087 12 20 12C21.5913 12 23.1174 12.6321 24.2426 13.7574C25.3679 14.8826 26 16.4087 26 18C26 19.5913 25.3679 21.1174 24.2426 22.2426C23.1174 23.3679 21.5913 24 20 24C18.4087 24 16.8826 23.3679 15.7574 22.2426C14.6321 21.1174 14 19.5913 14 18ZM9 29.536C9 27.58 10.582 26 12.536 26H27.464C29.418 26 31 27.582 31 29.536V30.256C31 30.67 31 33.072 29.6 35.406C28.114 37.874 25.226 40 20 40C14.774 40 11.884 37.874 10.4 35.406C9 33.072 9 30.672 9 30.254V29.536ZM12.536 29C12.4656 29 12.3959 29.0139 12.3309 29.0408C12.2659 29.0677 12.2068 29.1072 12.157 29.157C12.1072 29.2068 12.0677 29.2659 12.0408 29.3309C12.0139 29.3959 12 29.4656 12 29.536V30.25C12 30.534 12.006 32.25 12.974 33.86C13.866 35.346 15.728 37 20 37C24.272 37 26.134 35.346 27.026 33.86C27.994 32.25 28 30.534 28 30.25V29.536C28 29.3938 27.9435 29.2575 27.843 29.157C27.7425 29.0565 27.6062 29 27.464 29H12.536Z" fill="#9B5DE5"/>
</g>
<defs>
<clipPath id="clip0_1630_191">
<rect width="40" height="40" fill="white"/>
</clipPath>
</defs>
</svg>
