<svg width="100" height="100" viewBox="0 0 100 100" fill="none" xmlns="http://www.w3.org/2000/svg">
<circle cx="50" cy="50" r="50" fill="#9B5DE5"/>
<path d="M59.9208 50.3777C49.4194 50.7384 46.8695 60.3641 46.8677 65.7509C46.8675 66.1454 47.1934 66.453 47.5879 66.453H74.2012C74.632 66.453 74.9721 66.0884 74.9181 65.661C74.1968 59.9575 70.3923 50.018 59.9208 50.3777Z" stroke="white" stroke-width="3"/>
<path d="M24 71H75.2105" stroke="white" stroke-width="3" stroke-linecap="round"/>
<path d="M53.3833 60.7584V56.7626C53.3833 56.4079 53.6377 56.1015 53.9883 56.0474C58.7653 55.3101 60.5598 56.9752 60.8978 58.0135C60.9168 58.072 60.9235 58.1318 60.9235 58.1932V63.0017C60.9235 61.4382 56.8386 61.3311 54.1924 61.5052C53.758 61.5337 53.3833 61.1937 53.3833 60.7584Z" fill="white"/>
<path d="M68.4946 60.7584V56.7626C68.4946 56.4079 68.2402 56.1015 67.8897 56.0474C63.1126 55.3101 61.3181 56.9752 60.9801 58.0135C60.9611 58.072 60.9544 58.1318 60.9544 58.1932V63.0017C60.9544 61.4382 65.0393 61.3311 67.6856 61.5052C68.1199 61.5337 68.4946 61.1937 68.4946 60.7584Z" fill="white"/>
<path d="M55.5419 37.7703C55.9823 35.0668 58.9398 34.269 60.3728 34.269C63.8109 34.4817 65.0551 36.6904 65.2478 37.7692L65.248 37.7704C65.2524 37.7943 65.8663 41.1889 65.248 42.8671C64.6275 44.5513 62.6331 46.7673 60.2398 46.4127C57.8512 46.0588 56.1254 45.3517 55.5453 42.8814C55.5431 42.872 55.5413 42.8639 55.5397 42.8544C55.5062 42.664 55.1202 40.3594 55.5419 37.7703Z" stroke="white" stroke-width="3"/>
<path d="M35.7287 44.6943C27.8851 47.6799 26.6925 59.2237 27.2356 65.7145C27.267 66.0897 27.5838 66.3724 27.9602 66.3724H45.0491C45.4718 66.3724 45.8065 66.0187 45.8063 65.596C45.8044 60.2617 48.6098 53.3552 53.0049 51.4032C53.4448 51.2078 53.6631 50.6805 53.3777 50.2929C50.9949 47.057 44.1196 41.5004 35.7287 44.6943Z" stroke="white" stroke-width="3"/>
<path d="M36.8813 44.4736L40.2993 53.2564C40.5469 53.8928 41.4522 53.8791 41.6804 53.2355L44.7881 44.4736" stroke="white" stroke-width="3"/>
<path d="M33.8462 32.8147C33.7041 26.6487 38.6608 25.6241 41.1569 25.8826C42.932 26.006 47.8515 26.348 47.3367 33.7525C47.0011 38.5809 42.8392 40.0479 40.7748 40.1762C38.5245 40.2915 33.9883 38.9807 33.8462 32.8147Z" stroke="white" stroke-width="3"/>
</svg>
