<svg width="100" height="100" viewBox="0 0 100 100" fill="none" xmlns="http://www.w3.org/2000/svg">
<circle cx="50" cy="50" r="50" fill="#F8A07B"/>
<path d="M48.714 53.1649L56.5144 46.1956C56.5997 46.0251 57.0387 45.927 58.1129 46.8989C59.1871 47.8708 59.6958 49.2064 59.4827 49.5687C57.0104 52.2115 51.1052 57.3848 49.9288 58.4078C48.7523 59.4308 47.5204 58.8341 47.0515 58.4078C45.7515 56.9372 42.7529 54.113 42.2414 53.448C41.602 52.6168 42.448 51.2467 43.471 50.4795C44.2894 49.8656 45.3891 50.2237 45.8367 50.4795L48.714 53.1649Z" fill="white"/>
<path d="M69.5365 31.6529H65.176V29.3805C65.176 27.4757 64.0979 26.2592 62.839 26.1018L62.7464 26.0902H62.653H57.9215C57.3567 26.0902 56.832 26.2534 56.3934 26.5707C55.9705 26.8766 55.7034 27.27 55.537 27.6251C55.2337 28.2725 55.1817 28.9638 55.2067 29.4265V31.6529H45.7387V29.3805C45.7387 28.3986 45.5082 27.5383 44.9642 26.9111C44.4428 26.3099 43.7351 26.0513 43.092 26.0902H38.8039C38.2392 26.0902 37.7096 26.2536 37.2677 26.5817C36.8419 26.8979 36.5818 27.3037 36.4251 27.6657C36.1462 28.31 36.1155 28.9913 36.1531 29.451C36.1543 29.8093 36.1636 30.3105 36.1731 30.8176C36.1784 31.1014 36.1837 31.3871 36.1876 31.6506C35.971 31.6481 35.7338 31.6454 35.4769 31.6428C34.2211 31.6302 32.5632 31.6207 30.9101 31.6531C29.1088 31.6885 27.8511 32.5099 27.0869 33.578C26.3725 34.5765 26.1301 35.7229 26.1149 36.5127L26.1147 36.5254L26.1147 36.5381C26.0934 45.5863 26.0634 64.6285 26.1148 68.2762C26.1489 70.6975 27.4146 72.2593 28.9275 73.1365C30.3492 73.9608 31.9771 74.1897 33.0662 74.1668H69.5583C71.8851 74.1668 73.4588 73.2111 74.3292 71.7999C75.0999 70.5504 75.2048 69.1307 75.0865 68.1565V36.5416C75.0865 34.5491 74.0855 33.2288 72.8446 32.4882C71.7056 31.8084 70.4083 31.6294 69.5365 31.6529ZM36.185 32.905C36.1844 32.9125 36.1843 32.9116 36.1851 32.9039L36.185 32.905ZM37.5222 31.6597C37.5554 31.6571 37.5632 31.6581 37.5294 31.6594C37.5276 31.6595 37.5252 31.6596 37.5222 31.6597Z" stroke="white" stroke-width="3"/>
<circle cx="41.1548" cy="31.8105" r="1.5" fill="white"/>
<circle cx="59.9824" cy="31.8105" r="1.5" fill="white"/>
<path d="M33.5858 41.0464H67.7392C68.3391 41.0464 68.8254 41.5327 68.8254 42.1326V63.432C68.8254 63.6318 68.8436 63.8318 68.8545 63.9517C68.8561 63.9689 68.8575 63.9844 68.8587 63.9981C68.8821 64.2676 68.8322 64.5333 68.7443 64.6826C68.7104 64.74 68.6748 64.7755 68.627 64.8038C68.5777 64.833 68.4558 64.8895 68.2026 64.9025C66.2675 65.0018 44.9301 64.9437 34.351 64.9009C33.9911 64.8551 33.475 64.7105 33.081 64.4555C32.7041 64.2116 32.5672 63.9692 32.5672 63.6512C32.5672 63.2421 32.5591 62.2899 32.5479 60.9723C32.5104 56.5511 32.4379 48.0158 32.5187 42.0811C32.5265 41.5138 32.9908 41.0464 33.5858 41.0464Z" stroke="white" stroke-width="3"/>
</svg>
