<svg width="100" height="100" viewBox="0 0 100 100" fill="none" xmlns="http://www.w3.org/2000/svg">
<circle cx="50" cy="50" r="50" fill="#DE90B9"/>
<path d="M27.9902 57.9661V48.9512C27.9902 47.8317 28.8978 46.9242 30.0173 46.9242H36.5017M36.5017 46.9242V55.8957M36.5017 46.9242V40.6699C36.5017 39.5504 37.4092 38.6428 38.5287 38.6428H43.4462C44.5656 38.6428 45.4732 39.5504 45.4732 40.6699V42.0934M45.4732 54.9756V42.0934M45.4732 42.0934H51.7275C52.847 42.0934 53.7546 43.0009 53.7546 44.1204V54.5155V35.839C53.7546 34.7195 54.6621 33.812 55.7816 33.812H60.9291C62.0486 33.812 62.9561 34.7195 62.9561 35.839V38.6428M62.9561 55.4357V38.6428M62.9561 38.6428H69.3858C70.5264 38.6428 71.4425 39.5836 71.4121 40.7239L71.0075 55.8957" stroke="white" stroke-width="3"/>
<path d="M35.1104 64.6406H35.1077C34.1872 64.6406 32.5767 64.8671 32.5767 66.4773C32.5767 68.1338 33.2674 69.701 35.1077 69.701C36.9481 69.701 37.6386 68.7806 37.6382 66.4802C37.6378 64.6406 35.5754 64.6406 35.1104 64.6406Z" fill="white"/>
<path d="M65.4898 64.6372H65.4871C64.5666 64.6372 62.9561 64.8637 62.9561 66.4739C62.9561 68.1304 63.6468 69.6976 65.4871 69.6976C67.3274 69.6976 68.018 68.7772 68.0176 66.4768C68.0172 64.6372 65.9548 64.6372 65.4898 64.6372Z" fill="white"/>
<path d="M42.2386 61.4164L41.2592 60.577C40.8932 60.2632 40.3558 60.2541 39.9794 60.5553V60.5553C39.6738 60.7998 39.2539 60.8442 38.9039 60.6692L37.8064 60.1205C37.4211 59.9278 37.1777 59.534 37.1777 59.1032V59.1032C37.1777 58.475 36.6685 57.9658 36.0403 57.9658H34.7364C34.0284 57.9658 33.4312 58.493 33.3434 59.1955V59.1955C33.2947 59.5847 33.0855 59.9358 32.7663 60.1638L32.4149 60.4148C31.9614 60.7388 31.3522 60.7388 30.8987 60.4148V60.4148C30.4009 60.0593 29.7228 60.0975 29.2681 60.5067L28.5983 61.1095C28.101 61.5571 27.983 62.291 28.315 62.8719V62.8719C28.5362 63.2591 28.563 63.7277 28.3874 64.1376L28.3356 64.2583C28.1139 64.7758 27.6284 65.1318 27.0682 65.1878V65.1878C26.2777 65.2669 25.6758 65.932 25.6758 66.7264V66.9044C25.6758 67.7067 26.2837 68.3784 27.0819 68.4582V68.4582C27.6355 68.5135 28.1178 68.8593 28.3481 69.3658L28.7005 70.1412C28.9598 70.7116 28.8613 71.381 28.4487 71.8525V71.8525C27.9166 72.4606 27.923 73.3704 28.4635 73.971L28.6992 74.2329C29.2086 74.799 30.0563 74.9055 30.69 74.483V74.483C31.2618 74.1018 32.0173 74.1475 32.539 74.5947L33.047 75.0301C33.1867 75.1498 33.2671 75.3246 33.2671 75.5086V75.5086C33.2671 75.8567 33.5492 76.1389 33.8973 76.1389H35.8882C36.2193 76.1389 36.4876 75.8705 36.4876 75.5395V75.5395C36.4876 75.3391 36.5878 75.152 36.7545 75.0408L37.5984 74.4782C38.1795 74.0908 38.9364 74.0908 39.5174 74.4782V74.4782C40.1719 74.9145 41.0383 74.8543 41.6261 74.3318L42.1485 73.8674C42.5039 73.5515 42.7369 73.1207 42.8068 72.6504L42.9055 71.9864" stroke="white" stroke-width="3"/>
<path d="M57.7704 61.1758L59.0123 60.2886C59.633 59.8451 60.4637 59.8332 61.0969 60.2588V60.2588C61.71 60.6709 62.5108 60.674 63.127 60.2665L63.9174 59.7439C64.0845 59.6334 64.1854 59.4466 64.1861 59.2462V59.2462C64.1874 58.9152 64.4568 58.6479 64.7878 58.6491L66.7787 58.6567C67.1268 58.658 67.4079 58.9413 67.4065 59.2893V59.2893C67.4059 59.4733 67.4856 59.6484 67.6248 59.7687L68.1312 60.2061C68.6512 60.6552 69.4065 60.7037 69.9797 60.3247V60.3247C70.615 59.9047 71.4622 60.0144 71.9696 60.5824L72.2042 60.8452C72.7425 61.4478 72.7454 62.3577 72.211 62.9637V62.9637C71.7966 63.4337 71.6956 64.1027 71.9527 64.6741L72.3022 65.4508C72.5305 65.9582 73.0115 66.3058 73.5649 66.3632V66.3632C74.3628 66.4461 74.9681 67.1201 74.9651 67.9223L74.9644 68.1003C74.9614 68.8947 74.3569 69.5576 73.5662 69.6336V69.6336C73.0058 69.6875 72.519 70.0417 72.2952 70.5583L72.243 70.6788C72.0658 71.088 72.0908 71.5567 72.3106 71.9447V71.9447C72.6404 72.527 72.5196 73.2603 72.0206 73.7061L71.3485 74.3063C70.8922 74.7139 70.214 74.7495 69.7176 74.392V74.392C69.2653 74.0664 68.6561 74.0641 68.2014 74.3863L67.849 74.636C67.529 74.8627 67.3184 75.213 67.2683 75.602V75.602C67.1778 76.3042 66.5786 76.8291 65.8706 76.8264L64.5667 76.8215C63.9385 76.8191 63.4312 76.3079 63.4336 75.6798V75.6798C63.4353 75.249 63.1934 74.8542 62.8088 74.6601L61.7346 74.1179C61.3723 73.9351 60.9367 73.9795 60.6188 74.2319V74.2319C60.2468 74.5272 59.7219 74.5331 59.3433 74.2461L58.4156 73.5428C58.0775 73.2866 57.8284 72.9308 57.7033 72.5255L57.4325 71.6488" stroke="white" stroke-width="3"/>
<path d="M31.6714 38.4126L44.1096 30.7423C44.9092 30.2493 45.9427 30.3702 46.6069 31.0344L46.7216 31.149C47.3479 31.7753 48.3083 31.9225 49.0934 31.5123L63.1867 24.1502M63.1867 24.1502L58.816 23M63.1867 24.1502L61.8065 28.5209" stroke="white" stroke-width="3"/>
<circle cx="50" cy="66.2436" r="7.95946" stroke="white" stroke-width="3"/>
<path d="M45.2834 67.2564L47.0442 68.3451C47.3672 68.495 48.2299 68.6833 49.0963 68.2374C49.9628 67.7914 52.9451 65.273 54.328 64.0696" stroke="white" stroke-width="2"/>
</svg>
