<svg width="209" height="46" viewBox="0 0 209 46" fill="none" xmlns="http://www.w3.org/2000/svg">
<path d="M77.496 32V14.096H77.52L86.616 27.008L85.632 26.816L94.704 14.096H94.752V32H92.448V19.376L92.592 20.552L86.04 29.816H85.992L79.344 20.552L79.752 19.472V32H77.496ZM102.858 14.648H105.186V32H102.858V14.648ZM126.875 30.512C126.635 30.72 126.299 30.928 125.867 31.136C125.435 31.328 124.955 31.504 124.427 31.664C123.915 31.824 123.379 31.952 122.819 32.048C122.275 32.144 121.763 32.192 121.283 32.192C119.891 32.192 118.635 31.976 117.515 31.544C116.411 31.112 115.459 30.512 114.659 29.744C113.875 28.976 113.267 28.072 112.835 27.032C112.419 25.992 112.211 24.864 112.211 23.648C112.211 22.208 112.443 20.92 112.907 19.784C113.387 18.632 114.035 17.664 114.851 16.88C115.683 16.08 116.635 15.48 117.707 15.08C118.779 14.664 119.915 14.456 121.115 14.456C122.123 14.456 123.059 14.576 123.923 14.816C124.787 15.056 125.547 15.36 126.203 15.728L125.411 17.864C125.091 17.672 124.691 17.496 124.211 17.336C123.747 17.176 123.267 17.048 122.771 16.952C122.275 16.84 121.811 16.784 121.379 16.784C120.355 16.784 119.427 16.944 118.595 17.264C117.763 17.568 117.051 18.016 116.459 18.608C115.867 19.184 115.411 19.888 115.091 20.72C114.771 21.536 114.611 22.456 114.611 23.48C114.611 24.424 114.771 25.288 115.091 26.072C115.411 26.856 115.867 27.536 116.459 28.112C117.051 28.672 117.755 29.112 118.571 29.432C119.403 29.736 120.315 29.888 121.307 29.888C121.899 29.888 122.483 29.832 123.059 29.72C123.635 29.592 124.131 29.416 124.547 29.192V25.736H121.091V23.504H126.875V30.512ZM139.042 14.648C139.922 14.648 140.73 14.768 141.466 15.008C142.218 15.232 142.866 15.576 143.41 16.04C143.97 16.488 144.402 17.048 144.706 17.72C145.026 18.376 145.186 19.144 145.186 20.024C145.186 20.712 145.082 21.384 144.874 22.04C144.682 22.696 144.354 23.296 143.89 23.84C143.426 24.368 142.818 24.8 142.066 25.136C141.33 25.456 140.418 25.616 139.33 25.616H136.762V32H134.434V14.648H139.042ZM139.282 23.384C139.97 23.384 140.538 23.28 140.986 23.072C141.45 22.864 141.81 22.6 142.066 22.28C142.322 21.944 142.506 21.584 142.618 21.2C142.73 20.816 142.786 20.456 142.786 20.12C142.786 19.768 142.722 19.408 142.594 19.04C142.482 18.656 142.29 18.304 142.018 17.984C141.762 17.664 141.418 17.4 140.986 17.192C140.57 16.984 140.058 16.88 139.45 16.88H136.762V23.384H139.282ZM142.138 24.704L146.674 32H143.986L139.378 24.776L142.138 24.704ZM151.646 32L159.23 13.928H159.374L166.934 32H164.27L158.606 17.576L160.262 16.496L153.926 32H151.646ZM156.086 25.424H162.542L163.31 27.44H155.414L156.086 25.424ZM172.25 14.648L177.962 29L176.642 28.736L182.066 14.648H184.778L177.122 32.792L169.49 14.648H172.25ZM189.167 23.336C189.167 22.136 189.391 21.008 189.839 19.952C190.303 18.88 190.943 17.936 191.759 17.12C192.575 16.288 193.511 15.64 194.567 15.176C195.639 14.696 196.791 14.456 198.023 14.456C199.239 14.456 200.375 14.696 201.431 15.176C202.503 15.64 203.447 16.288 204.263 17.12C205.095 17.936 205.743 18.88 206.207 19.952C206.671 21.008 206.903 22.136 206.903 23.336C206.903 24.568 206.671 25.72 206.207 26.792C205.743 27.864 205.095 28.808 204.263 29.624C203.447 30.424 202.503 31.056 201.431 31.52C200.375 31.968 199.239 32.192 198.023 32.192C196.791 32.192 195.639 31.968 194.567 31.52C193.511 31.072 192.575 30.448 191.759 29.648C190.943 28.848 190.303 27.912 189.839 26.84C189.391 25.768 189.167 24.6 189.167 23.336ZM191.567 23.36C191.567 24.272 191.735 25.128 192.071 25.928C192.407 26.712 192.871 27.408 193.463 28.016C194.055 28.624 194.743 29.104 195.527 29.456C196.311 29.792 197.159 29.96 198.071 29.96C198.967 29.96 199.807 29.792 200.591 29.456C201.375 29.104 202.055 28.624 202.631 28.016C203.207 27.408 203.663 26.712 203.999 25.928C204.335 25.128 204.503 24.264 204.503 23.336C204.503 22.424 204.335 21.568 203.999 20.768C203.663 19.952 203.199 19.24 202.607 18.632C202.015 18.024 201.327 17.552 200.543 17.216C199.759 16.864 198.919 16.688 198.023 16.688C197.111 16.688 196.263 16.864 195.479 17.216C194.695 17.568 194.007 18.048 193.415 18.656C192.823 19.264 192.367 19.976 192.047 20.792C191.727 21.592 191.567 22.448 191.567 23.36Z" fill="black"/>
<rect width="45" height="46" fill="black"/>
<path d="M19.7148 19.7694L11.0316 11.25V26.6505" stroke="white" stroke-width="1.09223" stroke-linecap="square"/>
<path d="M33.4224 34.9516V18.3496L25.2306 26.869" stroke="white" stroke-width="1.09223" stroke-linecap="square"/>
<path d="M32.0342 11.0562L11.3799 34.3414" stroke="white" stroke-width="1.09223" stroke-linecap="square"/>
<line x1="31.9656" y1="11.0861" x2="11.3113" y2="34.3713" stroke="black" stroke-width="0.163835" stroke-dasharray="0.22 0.22"/>
</svg>
