<svg width="199" height="46" viewBox="0 0 199 46" fill="none" xmlns="http://www.w3.org/2000/svg">
<path d="M67.496 31V13.096H67.52L76.616 26.008L75.632 25.816L84.704 13.096H84.752V31H82.448V18.376L82.592 19.552L76.04 28.816H75.992L69.344 19.552L69.752 18.472V31H67.496ZM92.8582 13.648H95.1862V31H92.8582V13.648ZM116.875 29.512C116.635 29.72 116.299 29.928 115.867 30.136C115.435 30.328 114.955 30.504 114.427 30.664C113.915 30.824 113.379 30.952 112.819 31.048C112.275 31.144 111.763 31.192 111.283 31.192C109.891 31.192 108.635 30.976 107.515 30.544C106.411 30.112 105.459 29.512 104.659 28.744C103.875 27.976 103.267 27.072 102.835 26.032C102.419 24.992 102.211 23.864 102.211 22.648C102.211 21.208 102.443 19.92 102.907 18.784C103.387 17.632 104.035 16.664 104.851 15.88C105.683 15.08 106.635 14.48 107.707 14.08C108.779 13.664 109.915 13.456 111.115 13.456C112.123 13.456 113.059 13.576 113.923 13.816C114.787 14.056 115.547 14.36 116.203 14.728L115.411 16.864C115.091 16.672 114.691 16.496 114.211 16.336C113.747 16.176 113.267 16.048 112.771 15.952C112.275 15.84 111.811 15.784 111.379 15.784C110.355 15.784 109.427 15.944 108.595 16.264C107.763 16.568 107.051 17.016 106.459 17.608C105.867 18.184 105.411 18.888 105.091 19.72C104.771 20.536 104.611 21.456 104.611 22.48C104.611 23.424 104.771 24.288 105.091 25.072C105.411 25.856 105.867 26.536 106.459 27.112C107.051 27.672 107.755 28.112 108.571 28.432C109.403 28.736 110.315 28.888 111.307 28.888C111.899 28.888 112.483 28.832 113.059 28.72C113.635 28.592 114.131 28.416 114.547 28.192V24.736H111.091V22.504H116.875V29.512ZM129.042 13.648C129.922 13.648 130.73 13.768 131.466 14.008C132.218 14.232 132.866 14.576 133.41 15.04C133.97 15.488 134.402 16.048 134.706 16.72C135.026 17.376 135.186 18.144 135.186 19.024C135.186 19.712 135.082 20.384 134.874 21.04C134.682 21.696 134.354 22.296 133.89 22.84C133.426 23.368 132.818 23.8 132.066 24.136C131.33 24.456 130.418 24.616 129.33 24.616H126.762V31H124.434V13.648H129.042ZM129.282 22.384C129.97 22.384 130.538 22.28 130.986 22.072C131.45 21.864 131.81 21.6 132.066 21.28C132.322 20.944 132.506 20.584 132.618 20.2C132.73 19.816 132.786 19.456 132.786 19.12C132.786 18.768 132.722 18.408 132.594 18.04C132.482 17.656 132.29 17.304 132.018 16.984C131.762 16.664 131.418 16.4 130.986 16.192C130.57 15.984 130.058 15.88 129.45 15.88H126.762V22.384H129.282ZM132.138 23.704L136.674 31H133.986L129.378 23.776L132.138 23.704ZM141.646 31L149.23 12.928H149.374L156.934 31H154.27L148.606 16.576L150.262 15.496L143.926 31H141.646ZM146.086 24.424H152.542L153.31 26.44H145.414L146.086 24.424ZM162.25 13.648L167.962 28L166.642 27.736L172.066 13.648H174.778L167.122 31.792L159.49 13.648H162.25ZM179.167 22.336C179.167 21.136 179.391 20.008 179.839 18.952C180.303 17.88 180.943 16.936 181.759 16.12C182.575 15.288 183.511 14.64 184.567 14.176C185.639 13.696 186.791 13.456 188.023 13.456C189.239 13.456 190.375 13.696 191.431 14.176C192.503 14.64 193.447 15.288 194.263 16.12C195.095 16.936 195.743 17.88 196.207 18.952C196.671 20.008 196.903 21.136 196.903 22.336C196.903 23.568 196.671 24.72 196.207 25.792C195.743 26.864 195.095 27.808 194.263 28.624C193.447 29.424 192.503 30.056 191.431 30.52C190.375 30.968 189.239 31.192 188.023 31.192C186.791 31.192 185.639 30.968 184.567 30.52C183.511 30.072 182.575 29.448 181.759 28.648C180.943 27.848 180.303 26.912 179.839 25.84C179.391 24.768 179.167 23.6 179.167 22.336ZM181.567 22.36C181.567 23.272 181.735 24.128 182.071 24.928C182.407 25.712 182.871 26.408 183.463 27.016C184.055 27.624 184.743 28.104 185.527 28.456C186.311 28.792 187.159 28.96 188.071 28.96C188.967 28.96 189.807 28.792 190.591 28.456C191.375 28.104 192.055 27.624 192.631 27.016C193.207 26.408 193.663 25.712 193.999 24.928C194.335 24.128 194.503 23.264 194.503 22.336C194.503 21.424 194.335 20.568 193.999 19.768C193.663 18.952 193.199 18.24 192.607 17.632C192.015 17.024 191.327 16.552 190.543 16.216C189.759 15.864 188.919 15.688 188.023 15.688C187.111 15.688 186.263 15.864 185.479 16.216C184.695 16.568 184.007 17.048 183.415 17.656C182.823 18.264 182.367 18.976 182.047 19.792C181.727 20.592 181.567 21.448 181.567 22.36Z" fill="white"/>
<rect width="45" height="46" fill="white"/>
<path d="M19.7148 19.7694L11.0316 11.25V26.6505" stroke="black" stroke-width="1.09223" stroke-linecap="square"/>
<path d="M33.4224 34.9516V18.3496L25.2306 26.869" stroke="black" stroke-width="1.09223" stroke-linecap="square"/>
<path d="M32.0342 11.0562L11.3799 34.3414" stroke="black" stroke-width="1.09223" stroke-linecap="square"/>
<line x1="31.9656" y1="11.0861" x2="11.3113" y2="34.3713" stroke="white" stroke-width="0.163835" stroke-dasharray="0.22 0.22"/>
</svg>
